<svg width="32" height="32" viewBox="0 0 32 32" fill="none" xmlns="http://www.w3.org/2000/svg">
  <rect width="32" height="32" rx="8" fill="#25D366"/>
  <path d="M16 6C10.48 6 6 10.48 6 16C6 17.89 6.525 19.66 7.438 21.16L6.5 25.5L11.04 24.594C12.47 25.41 14.18 25.875 16 25.875C21.52 25.875 26 21.395 26 15.875C26 10.355 21.52 5.875 16 5.875V6Z" fill="white"/>
  <path d="M20.5 18.5C20.25 18.625 19.75 18.875 19.25 19C18.75 19.125 18.125 19.125 17.375 18.875C16.875 18.75 16.25 18.5 15.5 18.125C13.75 17.25 12.5 15.5 12.375 15.375C12.25 15.25 11.5 14.25 11.5 13.25C11.5 12.25 12 11.75 12.25 11.5C12.5 11.25 12.75 11.25 12.875 11.25C13 11.25 13.125 11.25 13.25 11.25C13.375 11.25 13.5 11.25 13.625 11.625C13.75 12 14.125 12.875 14.125 13C14.125 13.125 14.125 13.25 14 13.375C13.875 13.5 13.75 13.625 13.625 13.75C13.5 13.875 13.375 14 13.5 14.25C13.625 14.5 14.125 15.25 14.75 15.875C15.5 16.625 16.125 16.875 16.375 17C16.625 17.125 16.75 17.125 16.875 16.875C17 16.625 17.375 16.25 17.5 16C17.625 15.75 17.75 15.75 18 15.875C18.25 16 19.125 16.375 19.375 16.5C19.625 16.625 19.75 16.75 19.875 16.875C20 17 20 17.375 19.875 17.75C19.75 18.125 19.625 18.375 20.5 18.5Z" fill="#25D366"/>
  <circle cx="22" cy="10" r="4" fill="#FFD700"/>
  <path d="M20.5 10L21.5 11L23.5 9" stroke="white" stroke-width="1.5" stroke-linecap="round" stroke-linejoin="round"/>
</svg>